<svg width="215" height="40" viewBox="0 0 215 40" fill="none" xmlns="http://www.w3.org/2000/svg">
<path d="M115 0L119.49 13.8197H134.021L122.265 22.3607L126.756 36.1803L115 27.6393L103.244 36.1803L107.735 22.3607L95.9789 13.8197H110.51L115 0Z" fill="#4CA78E"/>
<path d="M16.2598 17.5781V20.4932H4.93652V17.5781H16.2598ZM5.84473 8.67188V30H2.16797V8.67188H5.84473ZM19.0869 8.67188V30H15.4248V8.67188H19.0869ZM22.4414 22.251V21.9141C22.4414 20.7715 22.6074 19.7119 22.9395 18.7354C23.2715 17.749 23.75 16.8945 24.375 16.1719C25.0098 15.4395 25.7812 14.873 26.6895 14.4727C27.6074 14.0625 28.6426 13.8574 29.7949 13.8574C30.957 13.8574 31.9922 14.0625 32.9004 14.4727C33.8184 14.873 34.5947 15.4395 35.2295 16.1719C35.8643 16.8945 36.3477 17.749 36.6797 18.7354C37.0117 19.7119 37.1777 20.7715 37.1777 21.9141V22.251C37.1777 23.3936 37.0117 24.4531 36.6797 25.4297C36.3477 26.4062 35.8643 27.2607 35.2295 27.9932C34.5947 28.7158 33.8232 29.2822 32.915 29.6924C32.0068 30.0928 30.9766 30.293 29.8242 30.293C28.6621 30.293 27.6221 30.0928 26.7041 29.6924C25.7959 29.2822 25.0244 28.7158 24.3896 27.9932C23.7549 27.2607 23.2715 26.4062 22.9395 25.4297C22.6074 24.4531 22.4414 23.3936 22.4414 22.251ZM25.9717 21.9141V22.251C25.9717 22.9639 26.0449 23.6377 26.1914 24.2725C26.3379 24.9072 26.5674 25.4639 26.8799 25.9424C27.1924 26.4209 27.5928 26.7969 28.0811 27.0703C28.5693 27.3438 29.1504 27.4805 29.8242 27.4805C30.4785 27.4805 31.0449 27.3438 31.5234 27.0703C32.0117 26.7969 32.4121 26.4209 32.7246 25.9424C33.0371 25.4639 33.2666 24.9072 33.4131 24.2725C33.5693 23.6377 33.6475 22.9639 33.6475 22.251V21.9141C33.6475 21.2109 33.5693 20.5469 33.4131 19.9219C33.2666 19.2871 33.0322 18.7256 32.71 18.2373C32.3975 17.749 31.9971 17.3682 31.5088 17.0947C31.0303 16.8115 30.459 16.6699 29.7949 16.6699C29.1309 16.6699 28.5547 16.8115 28.0664 17.0947C27.5879 17.3682 27.1924 17.749 26.8799 18.2373C26.5674 18.7256 26.3379 19.2871 26.1914 19.9219C26.0449 20.5469 25.9717 21.2109 25.9717 21.9141ZM43.667 17.373V30H40.1367V14.1504H43.4619L43.667 17.373ZM43.0957 21.4893L41.8945 21.4746C41.8945 20.3809 42.0312 19.3701 42.3047 18.4424C42.5781 17.5146 42.9785 16.709 43.5059 16.0254C44.0332 15.332 44.6875 14.7998 45.4688 14.4287C46.2598 14.0479 47.1729 13.8574 48.208 13.8574C48.9307 13.8574 49.5898 13.9648 50.1855 14.1797C50.791 14.3848 51.3135 14.7119 51.7529 15.1611C52.2021 15.6104 52.5439 16.1865 52.7783 16.8896C53.0225 17.5928 53.1445 18.4424 53.1445 19.4385V30H49.6143V19.7461C49.6143 18.9746 49.4971 18.3691 49.2627 17.9297C49.0381 17.4902 48.7109 17.1777 48.2812 16.9922C47.8613 16.7969 47.3584 16.6992 46.7725 16.6992C46.1084 16.6992 45.542 16.8262 45.0732 17.0801C44.6143 17.334 44.2383 17.6807 43.9453 18.1201C43.6523 18.5596 43.4375 19.0674 43.3008 19.6436C43.1641 20.2197 43.0957 20.835 43.0957 21.4893ZM52.9248 20.5518L51.2695 20.918C51.2695 19.9609 51.4014 19.0576 51.665 18.208C51.9385 17.3486 52.334 16.5967 52.8516 15.9521C53.3789 15.2979 54.0283 14.7852 54.7998 14.4141C55.5713 14.043 56.4551 13.8574 57.4512 13.8574C58.2617 13.8574 58.9844 13.9697 59.6191 14.1943C60.2637 14.4092 60.8105 14.751 61.2598 15.2197C61.709 15.6885 62.0508 16.2988 62.2852 17.0508C62.5195 17.793 62.6367 18.6914 62.6367 19.7461V30H59.0918V19.7314C59.0918 18.9307 58.9746 18.3105 58.7402 17.8711C58.5156 17.4316 58.1934 17.1289 57.7734 16.9629C57.3535 16.7871 56.8506 16.6992 56.2646 16.6992C55.7178 16.6992 55.2344 16.8018 54.8145 17.0068C54.4043 17.2021 54.0576 17.4805 53.7744 17.8418C53.4912 18.1934 53.2764 18.5986 53.1299 19.0576C52.9932 19.5166 52.9248 20.0146 52.9248 20.5518ZM73.2568 30.293C72.085 30.293 71.0254 30.1025 70.0781 29.7217C69.1406 29.3311 68.3398 28.7891 67.6758 28.0957C67.0215 27.4023 66.5186 26.5869 66.167 25.6494C65.8154 24.7119 65.6396 23.7012 65.6396 22.6172V22.0312C65.6396 20.791 65.8203 19.668 66.1816 18.6621C66.543 17.6562 67.0459 16.7969 67.6904 16.084C68.335 15.3613 69.0967 14.8096 69.9756 14.4287C70.8545 14.0479 71.8066 13.8574 72.832 13.8574C73.9648 13.8574 74.9561 14.0479 75.8057 14.4287C76.6553 14.8096 77.3584 15.3467 77.915 16.04C78.4814 16.7236 78.9014 17.5391 79.1748 18.4863C79.458 19.4336 79.5996 20.4785 79.5996 21.6211V23.1299H67.3535V20.5957H76.1133V20.3174C76.0938 19.6826 75.9668 19.0869 75.7324 18.5303C75.5078 17.9736 75.1611 17.5244 74.6924 17.1826C74.2236 16.8408 73.5986 16.6699 72.8174 16.6699C72.2314 16.6699 71.709 16.7969 71.25 17.0508C70.8008 17.2949 70.4248 17.6514 70.1221 18.1201C69.8193 18.5889 69.585 19.1553 69.4189 19.8193C69.2627 20.4736 69.1846 21.2109 69.1846 22.0312V22.6172C69.1846 23.3105 69.2773 23.9551 69.4629 24.5508C69.6582 25.1367 69.9414 25.6494 70.3125 26.0889C70.6836 26.5283 71.1328 26.875 71.6602 27.1289C72.1875 27.373 72.7881 27.4951 73.4619 27.4951C74.3115 27.4951 75.0684 27.3242 75.7324 26.9824C76.3965 26.6406 76.9727 26.1572 77.4609 25.5322L79.3213 27.334C78.9795 27.832 78.5352 28.3105 77.9883 28.7695C77.4414 29.2188 76.7725 29.585 75.9814 29.8682C75.2002 30.1514 74.292 30.293 73.2568 30.293Z" fill="black"/>
<path d="M159.166 20.3613H153.731L153.702 17.6807H158.448C159.249 17.6807 159.928 17.5635 160.484 17.3291C161.051 17.085 161.48 16.7383 161.773 16.2891C162.066 15.8301 162.213 15.2783 162.213 14.6338C162.213 13.9209 162.076 13.3398 161.803 12.8906C161.529 12.4414 161.109 12.1143 160.543 11.9092C159.986 11.7041 159.273 11.6016 158.404 11.6016H154.845V30H151.168V8.67188H158.404C159.576 8.67188 160.621 8.78418 161.539 9.00879C162.467 9.2334 163.253 9.58496 163.897 10.0635C164.552 10.5322 165.045 11.1279 165.377 11.8506C165.719 12.5732 165.89 13.4326 165.89 14.4287C165.89 15.3076 165.68 16.1133 165.26 16.8457C164.84 17.5684 164.22 18.1592 163.399 18.6182C162.579 19.0771 161.559 19.3506 160.338 19.4385L159.166 20.3613ZM159.005 30H152.574L154.229 27.085H159.005C159.835 27.085 160.528 26.9482 161.085 26.6748C161.642 26.3916 162.057 26.0059 162.33 25.5176C162.613 25.0195 162.755 24.4385 162.755 23.7744C162.755 23.0811 162.633 22.4805 162.389 21.9727C162.145 21.4551 161.759 21.0596 161.231 20.7861C160.704 20.5029 160.016 20.3613 159.166 20.3613H155.035L155.064 17.6807H160.44L161.275 18.6914C162.447 18.7305 163.409 18.9893 164.161 19.4678C164.923 19.9463 165.489 20.5664 165.86 21.3281C166.231 22.0898 166.417 22.9102 166.417 23.7891C166.417 25.1465 166.119 26.2842 165.523 27.2021C164.938 28.1201 164.093 28.8184 162.989 29.2969C161.886 29.7656 160.558 30 159.005 30ZM169.098 22.251V21.9141C169.098 20.7715 169.264 19.7119 169.596 18.7354C169.928 17.749 170.406 16.8945 171.031 16.1719C171.666 15.4395 172.438 14.873 173.346 14.4727C174.264 14.0625 175.299 13.8574 176.451 13.8574C177.613 13.8574 178.648 14.0625 179.557 14.4727C180.475 14.873 181.251 15.4395 181.886 16.1719C182.521 16.8945 183.004 17.749 183.336 18.7354C183.668 19.7119 183.834 20.7715 183.834 21.9141V22.251C183.834 23.3936 183.668 24.4531 183.336 25.4297C183.004 26.4062 182.521 27.2607 181.886 27.9932C181.251 28.7158 180.479 29.2822 179.571 29.6924C178.663 30.0928 177.633 30.293 176.48 30.293C175.318 30.293 174.278 30.0928 173.36 29.6924C172.452 29.2822 171.681 28.7158 171.046 27.9932C170.411 27.2607 169.928 26.4062 169.596 25.4297C169.264 24.4531 169.098 23.3936 169.098 22.251ZM172.628 21.9141V22.251C172.628 22.9639 172.701 23.6377 172.848 24.2725C172.994 24.9072 173.224 25.4639 173.536 25.9424C173.849 26.4209 174.249 26.7969 174.737 27.0703C175.226 27.3438 175.807 27.4805 176.48 27.4805C177.135 27.4805 177.701 27.3438 178.18 27.0703C178.668 26.7969 179.068 26.4209 179.381 25.9424C179.693 25.4639 179.923 24.9072 180.069 24.2725C180.226 23.6377 180.304 22.9639 180.304 22.251V21.9141C180.304 21.2109 180.226 20.5469 180.069 19.9219C179.923 19.2871 179.688 18.7256 179.366 18.2373C179.054 17.749 178.653 17.3682 178.165 17.0947C177.687 16.8115 177.115 16.6699 176.451 16.6699C175.787 16.6699 175.211 16.8115 174.723 17.0947C174.244 17.3682 173.849 17.749 173.536 18.2373C173.224 18.7256 172.994 19.2871 172.848 19.9219C172.701 20.5469 172.628 21.2109 172.628 21.9141ZM191.158 28.2715L195.465 14.1504H199.244L192.887 32.417C192.74 32.8076 192.55 33.2324 192.315 33.6914C192.081 34.1504 191.773 34.585 191.393 34.9951C191.021 35.415 190.558 35.752 190.001 36.0059C189.444 36.2695 188.771 36.4014 187.979 36.4014C187.667 36.4014 187.364 36.3721 187.071 36.3135C186.788 36.2646 186.52 36.2109 186.266 36.1523L186.251 33.457C186.349 33.4668 186.466 33.4766 186.603 33.4863C186.749 33.4961 186.866 33.501 186.954 33.501C187.54 33.501 188.028 33.4277 188.419 33.2812C188.81 33.1445 189.127 32.9199 189.371 32.6074C189.625 32.2949 189.84 31.875 190.016 31.3477L191.158 28.2715ZM188.727 14.1504L192.491 26.0156L193.121 29.7363L190.675 30.3662L184.918 14.1504H188.727ZM210.157 25.708C210.157 25.3564 210.069 25.0391 209.894 24.7559C209.718 24.4629 209.381 24.1992 208.883 23.9648C208.395 23.7305 207.672 23.5156 206.715 23.3203C205.875 23.1348 205.104 22.915 204.4 22.6611C203.707 22.3975 203.111 22.0801 202.613 21.709C202.115 21.3379 201.729 20.8984 201.456 20.3906C201.183 19.8828 201.046 19.2969 201.046 18.6328C201.046 17.9883 201.188 17.3779 201.471 16.8018C201.754 16.2256 202.159 15.7178 202.687 15.2783C203.214 14.8389 203.854 14.4922 204.605 14.2383C205.367 13.9844 206.217 13.8574 207.154 13.8574C208.482 13.8574 209.62 14.082 210.567 14.5312C211.524 14.9707 212.257 15.5713 212.765 16.333C213.272 17.085 213.526 17.9346 213.526 18.8818H209.996C209.996 18.4619 209.889 18.0713 209.674 17.71C209.469 17.3389 209.156 17.041 208.736 16.8164C208.316 16.582 207.789 16.4648 207.154 16.4648C206.549 16.4648 206.046 16.5625 205.646 16.7578C205.255 16.9434 204.962 17.1875 204.767 17.4902C204.581 17.793 204.488 18.125 204.488 18.4863C204.488 18.75 204.537 18.9893 204.635 19.2041C204.742 19.4092 204.918 19.5996 205.162 19.7754C205.406 19.9414 205.738 20.0977 206.158 20.2441C206.588 20.3906 207.125 20.5322 207.77 20.6689C208.98 20.9229 210.021 21.25 210.89 21.6504C211.769 22.041 212.442 22.5488 212.911 23.1738C213.38 23.7891 213.614 24.5703 213.614 25.5176C213.614 26.2207 213.463 26.8652 213.16 27.4512C212.867 28.0273 212.438 28.5303 211.871 28.96C211.305 29.3799 210.626 29.707 209.835 29.9414C209.054 30.1758 208.175 30.293 207.198 30.293C205.763 30.293 204.547 30.0391 203.551 29.5312C202.555 29.0137 201.798 28.3545 201.28 27.5537C200.772 26.7432 200.519 25.9033 200.519 25.0342H203.932C203.971 25.6885 204.151 26.2109 204.474 26.6016C204.806 26.9824 205.216 27.2607 205.704 27.4365C206.202 27.6025 206.715 27.6855 207.242 27.6855C207.877 27.6855 208.409 27.6025 208.839 27.4365C209.269 27.2607 209.596 27.0264 209.82 26.7334C210.045 26.4307 210.157 26.0889 210.157 25.708Z" fill="black"/>
</svg>
